999
Inkscape export via OpenSCAD DXF Export
  0
SECTION
  2
HEADER
  9
$ACADVER
  1
AC1014
  9
$HANDSEED
  5
FFFF
  9
$MEASUREMENT
 70
     1
  0
ENDSEC
  0
SECTION
  2
TABLES
  0
TABLE
  2
VPORT
  5
8
330
0
100
AcDbSymbolTable
 70
     4
  0
VPORT
  5
2E
330
8
100
AcDbSymbolTableRecord
100
AcDbViewportTableRecord
  2
*ACTIVE
 70
     0
 10
0.0
 20
0.0
 11
1.0
 21
1.0
 12
210.0
 22
148.5
 13
0.0
 23
0.0
 14
10.0
 24
10.0
 15
10.0
 25
10.0
 16
0.0
 26
0.0
 36
1.0
 17
0.0
 27
0.0
 37
0.0
 40
341.0
 41
1.24
 42
50.0
 43
0.0
 44
0.0
 50
0.0
 51
0.0
 71
     0
 72
   100
 73
     1
 74
     3
 75
     0
 76
     0
 77
     0
 78
     0
  0
ENDTAB
  0
TABLE
  2
LTYPE
  5
5
330
0
100
AcDbSymbolTable
 70
     1
  0
LTYPE
  5
14
330
5
100
AcDbSymbolTableRecord
100
AcDbLinetypeTableRecord
  2
BYBLOCK
 70
     0
  3

 72
    65
 73
     0
 40
0.0
  0
LTYPE
  5
15
330
5
100
AcDbSymbolTableRecord
100
AcDbLinetypeTableRecord
  2
BYLAYER
 70
     0
  3

 72
    65
 73
     0
 40
0.0
  0
LTYPE
  5
16
330
5
100
AcDbSymbolTableRecord
100
AcDbLinetypeTableRecord
  2
CONTINUOUS
 70
     0
  3
Solid line
 72
    65
 73
     0
 40
0.0
  0
ENDTAB
  0
TABLE
0
TABLE
2
LAYER
5
2
330
0
100
AcDbSymbolTable
70
1
0
LAYER
5
10
330
2
100
AcDbSymbolTableRecord
100
AcDbLayerTableRecord
2
Layer_1
70
0
62
7
6
CONTINUOUS
0
ENDTAB
0
ENDSEC
  0
ENDTAB
  0
TABLE
  2
STYLE
  5
3
330
0
100
AcDbSymbolTable
 70
     1
  0
STYLE
  5
11
330
3
100
AcDbSymbolTableRecord
100
AcDbTextStyleTableRecord
  2
STANDARD
 70
     0
 40
0.0
 41
1.0
 50
0.0
 71
     0
 42
2.5
  3
txt
  4

  0
ENDTAB
  0
TABLE
  2
VIEW
  5
6
330
0
100
AcDbSymbolTable
 70
     0
  0
ENDTAB
  0
TABLE
  2
UCS
  5
7
330
0
100
AcDbSymbolTable
 70
     0
  0
ENDTAB
  0
TABLE
  2
APPID
  5
9
330
0
100
AcDbSymbolTable
 70
     2
  0
APPID
  5
12
330
9
100
AcDbSymbolTableRecord
100
AcDbRegAppTableRecord
  2
ACAD
 70
     0
  0
ENDTAB
  0
TABLE
  2
DIMSTYLE
  5
A
330
0
100
AcDbSymbolTable
 70
     1
  0
DIMSTYLE
105
27
330
A
100
AcDbSymbolTableRecord
100
AcDbDimStyleTableRecord
  2
ISO-25
 70
     0
  3

  4

  5

  6

  7

 40
1.0
 41
2.5
 42
0.625
 43
3.75
 44
1.25
 45
0.0
 46
0.0
 47
0.0
 48
0.0
140
2.5
141
2.5
142
0.0
143
0.03937007874016
144
1.0
145
0.0
146
1.0
147
0.625
 71
     0
 72
     0
 73
     0
 74
     0
 75
     0
 76
     0
 77
     1
 78
     8
170
     0
171
     3
172
     1
173
     0
174
     0
175
     0
176
     0
177
     0
178
     0
270
     2
271
     2
272
     2
273
     2
274
     3
340
11
275
     0
280
     0
281
     0
282
     0
283
     0
284
     8
285
     0
286
     0
287
     3
288
     0
  0
ENDTAB
  0
TABLE
  2
BLOCK_RECORD
  5
1
330
0
100
AcDbSymbolTable
 70
     1
  0
BLOCK_RECORD
  5
1F
330
1
100
AcDbSymbolTableRecord
100
AcDbBlockTableRecord
  2
*MODEL_SPACE
  0
BLOCK_RECORD
  5
1B
330
1
100
AcDbSymbolTableRecord
100
AcDbBlockTableRecord
  2
*PAPER_SPACE
  0
ENDTAB
  0
ENDSEC
  0
SECTION
  2
BLOCKS
  0
BLOCK
  5
20
330
1F
100
AcDbEntity
  8
0
100
AcDbBlockBegin
  2
*MODEL_SPACE
 70
     0
 10
0.0
 20
0.0
 30
0.0
  3
*MODEL_SPACE
  1

  0
ENDBLK
  5
21
330
1F
100
AcDbEntity
  8
0
100
AcDbBlockEnd
  0
BLOCK
  5
1C
330
1B
100
AcDbEntity
 67
     1
  8
0
100
AcDbBlockBegin
  2
*PAPER_SPACE
  1

  0
ENDBLK
  5
1D
330
1B
100
AcDbEntity
 67
     1
  8
0
100
AcDbBlockEnd
  0
ENDSEC
  0
SECTION
  2
ENTITIES
0
DIMENSION
5
83
100
AcDbEntity
62
256
370
-1
6
ByLayer
1
total_width
3
Standard
70
0
71
5
72
1
41
1.0
100
AcDbAlignedDimension
13
66.303596
23
0.000000
33
0.0
14
188.401654
24
0.000000
34
0.0
50
0.000000
100
AcDbRotatedDimension
0
DIMENSION
5
83
100
AcDbEntity
62
256
370
-1
6
ByLayer
1
total_height
3
Standard
70
0
71
5
72
1
41
1.0
100
AcDbAlignedDimension
13
0.000000
23
112.664982
33
0.0
14
0.000000
24
143.957407
34
0.0
50
90.000000
100
AcDbRotatedDimension
0
DIMENSION
8
Layer_1
5
83
100
AcDbEntity
62
256
370
-1
6
ByLayer
1
Layer_1_width
3
Standard
70
0
71
5
72
1
41
1.0
100
AcDbAlignedDimension
13
66.303596
23
0.000000
33
0.0
14
188.401654
24
0.000000
34
0.0
50
0.000000
100
AcDbRotatedDimension
0
DIMENSION
8
Layer_1
5
83
100
AcDbEntity
62
256
370
-1
6
ByLayer
1
Layer_1_height
3
Standard
70
0
71
5
72
1
41
1.0
100
AcDbAlignedDimension
13
0.000000
23
112.664982
33
0.0
14
0.000000
24
143.957407
34
0.0
50
90.000000
100
AcDbRotatedDimension
0
LWPOLYLINE
100
AcDbPolyline
8
Layer_1
90
148
70
0
10
87.814319
20
113.308449
30
0.0
10
84.832425
20
114.187447
30
0.0
10
82.097678
20
115.285664
30
0.0
10
79.601358
20
116.609881
30
0.0
10
77.334743
20
118.166881
30
0.0
10
75.289112
20
119.963445
30
0.0
10
73.455745
20
122.006355
30
0.0
10
71.825921
20
124.302395
30
0.0
10
70.390918
20
126.858344
30
0.0
10
69.149513
20
129.747346
30
0.0
10
68.083225
20
132.909562
30
0.0
10
67.384029
20
135.697936
30
0.0
10
67.243901
20
137.465415
30
0.0
10
67.132824
20
138.120692
30
0.0
10
66.756167
20
139.135011
30
0.0
10
66.336301
20
140.513792
30
0.0
10
66.303596
20
142.181210
30
0.0
10
66.416806
20
143.957407
30
0.0
10
68.296118
20
143.874544
30
0.0
10
70.175430
20
143.791678
30
0.0
10
70.345994
20
141.533900
30
0.0
10
70.975739
20
137.159455
30
0.0
10
71.574127
20
133.913900
30
0.0
10
71.985779
20
132.484479
30
0.0
10
72.819834
20
130.571715
30
0.0
10
73.859147
20
128.623176
30
0.0
10
74.886574
20
127.086431
30
0.0
10
76.046218
20
125.842827
30
0.0
10
77.551616
20
124.509694
30
0.0
10
79.192541
20
123.259633
30
0.0
10
80.758764
20
122.265245
30
0.0
10
82.508987
20
121.451435
30
0.0
10
84.658552
20
120.687366
30
0.0
10
86.942101
20
120.056533
30
0.0
10
89.094276
20
119.642433
30
0.0
10
90.872372
20
119.503714
30
0.0
10
92.759734
20
119.637320
30
0.0
10
95.135887
20
120.095970
30
0.0
10
98.380355
20
120.932386
30
0.0
10
102.996899
20
122.415960
30
0.0
10
107.553108
20
124.311385
30
0.0
10
111.983904
20
126.588448
30
0.0
10
116.224208
20
129.216935
30
0.0
10
120.693208
20
131.889565
30
0.0
10
124.608230
20
133.490287
30
0.0
10
126.480374
20
134.096118
30
0.0
10
127.629567
20
134.337233
30
0.0
10
127.862949
20
134.423844
30
0.0
10
128.032992
20
134.726946
30
0.0
10
128.270392
20
136.242233
30
0.0
10
128.452313
20
139.730621
30
0.0
10
128.633790
20
142.623399
30
0.0
10
128.813264
20
143.932789
30
0.0
10
131.173790
20
143.932789
30
0.0
10
133.534319
20
143.932789
30
0.0
10
133.556615
20
142.168900
30
0.0
10
133.627170
20
137.723900
30
0.0
10
133.675425
20
135.042789
30
0.0
10
135.995946
20
134.850384
30
0.0
10
138.431841
20
134.524381
30
0.0
10
140.912008
20
133.902543
30
0.0
10
143.730863
20
132.894300
30
0.0
10
147.182823
20
131.409084
30
0.0
10
152.500420
20
129.174893
30
0.0
10
158.087647
20
127.448073
30
0.0
10
159.795704
20
126.897053
30
0.0
10
159.986246
20
126.741783
30
0.0
10
159.780980
20
126.644603
30
0.0
10
159.353625
20
126.528281
30
0.0
10
159.969129
20
126.473444
30
0.0
10
160.627941
20
126.519323
30
0.0
10
160.956907
20
126.683598
30
0.0
10
161.512162
20
126.793235
30
0.0
10
162.754917
20
126.695733
30
0.0
10
165.357316
20
126.550408
30
0.0
10
168.614228
20
126.965227
30
0.0
10
171.127011
20
127.576117
30
0.0
10
173.502714
20
128.504967
30
0.0
10
175.716057
20
129.730344
30
0.0
10
177.741762
20
131.230813
30
0.0
10
179.554549
20
132.984940
30
0.0
10
181.129139
20
134.971293
30
0.0
10
182.440252
20
137.168436
30
0.0
10
183.462608
20
139.554935
30
0.0
10
183.877114
20
140.875895
30
0.0
10
184.018793
20
141.791601
30
0.0
10
183.888638
20
142.436493
30
0.0
10
183.487641
20
142.945014
30
0.0
10
182.923197
20
143.694311
30
0.0
10
183.750447
20
143.862737
30
0.0
10
185.739368
20
143.932791
30
0.0
10
188.168242
20
143.852781
30
0.0
10
188.401654
20
143.664186
30
0.0
10
188.298317
20
143.297791
30
0.0
10
187.727079
20
140.003522
30
0.0
10
187.274866
20
137.323482
30
0.0
10
186.570950
20
134.870216
30
0.0
10
185.599611
20
132.599388
30
0.0
10
184.345126
20
130.466663
30
0.0
10
182.153097
20
127.727717
30
0.0
10
180.933119
20
126.559494
30
0.0
10
179.629498
20
125.524719
30
0.0
10
178.241485
20
124.622850
30
0.0
10
176.768331
20
123.853350
30
0.0
10
175.209284
20
123.215679
30
0.0
10
173.563596
20
122.709297
30
0.0
10
170.360717
20
122.192901
30
0.0
10
166.399758
20
122.051686
30
0.0
10
162.045896
20
122.281749
30
0.0
10
157.664308
20
122.879189
30
0.0
10
153.630187
20
123.483161
30
0.0
10
150.326530
20
123.469352
30
0.0
10
147.982628
20
123.390883
30
0.0
10
146.598925
20
123.571397
30
0.0
10
146.168831
20
123.792503
30
0.0
10
145.860804
20
124.118831
30
0.0
10
145.453648
20
125.141124
30
0.0
10
144.861382
20
126.476164
30
0.0
10
143.881029
20
127.685317
30
0.0
10
142.611311
20
128.672230
30
0.0
10
141.150950
20
129.340551
30
0.0
10
138.064306
20
130.158848
30
0.0
10
135.224102
20
130.573927
30
0.0
10
132.443211
20
130.600490
30
0.0
10
129.534511
20
130.253240
30
0.0
10
127.250734
20
129.749359
30
0.0
10
125.092794
20
129.068527
30
0.0
10
123.103290
20
128.236701
30
0.0
10
121.324819
20
127.279837
30
0.0
10
119.799982
20
126.223893
30
0.0
10
118.571377
20
125.094826
30
0.0
10
117.681604
20
123.918593
30
0.0
10
117.173262
20
122.721150
30
0.0
10
116.415673
20
120.268074
30
0.0
10
115.967995
20
119.040021
30
0.0
10
112.914532
20
119.239493
30
0.0
10
109.861068
20
119.438965
30
0.0
10
106.857086
20
118.003995
30
0.0
10
102.254259
20
115.607877
30
0.0
10
100.634453
20
114.747921
30
0.0
10
98.880259
20
114.043603
30
0.0
10
96.940085
20
113.477178
30
0.0
10
94.762340
20
113.030900
30
0.0
10
92.775877
20
112.731927
30
0.0
10
91.294802
20
112.664982
30
0.0
10
89.810488
20
112.850385
30
0.0
10
87.814308
20
113.308452
30
0.0
10
87.814319
20
113.308449
30
0.0
  0
ENDSEC
  0
SECTION
  2
OBJECTS
  0
DICTIONARY
  5
C
330
0
100
AcDbDictionary
  3
ACAD_GROUP
350
D
  3
ACAD_MLINESTYLE
350
17
  0
DICTIONARY
  5
D
330
C
100
AcDbDictionary
  0
DICTIONARY
  5
1A
330
C
100
AcDbDictionary
  0
DICTIONARY
  5
17
330
C
100
AcDbDictionary
  3
STANDARD
350
18
  0
DICTIONARY
  5
19
330
C
100
AcDbDictionary
  0
ENDSEC
  0
EOF
