999
Inkscape export via OpenSCAD DXF Export
  0
SECTION
  2
HEADER
  9
$ACADVER
  1
AC1014
  9
$HANDSEED
  5
FFFF
  9
$MEASUREMENT
 70
     1
  0
ENDSEC
  0
SECTION
  2
TABLES
  0
TABLE
  2
VPORT
  5
8
330
0
100
AcDbSymbolTable
 70
     4
  0
VPORT
  5
2E
330
8
100
AcDbSymbolTableRecord
100
AcDbViewportTableRecord
  2
*ACTIVE
 70
     0
 10
0.0
 20
0.0
 11
1.0
 21
1.0
 12
210.0
 22
148.5
 13
0.0
 23
0.0
 14
10.0
 24
10.0
 15
10.0
 25
10.0
 16
0.0
 26
0.0
 36
1.0
 17
0.0
 27
0.0
 37
0.0
 40
341.0
 41
1.24
 42
50.0
 43
0.0
 44
0.0
 50
0.0
 51
0.0
 71
     0
 72
   100
 73
     1
 74
     3
 75
     0
 76
     0
 77
     0
 78
     0
  0
ENDTAB
  0
TABLE
  2
LTYPE
  5
5
330
0
100
AcDbSymbolTable
 70
     1
  0
LTYPE
  5
14
330
5
100
AcDbSymbolTableRecord
100
AcDbLinetypeTableRecord
  2
BYBLOCK
 70
     0
  3

 72
    65
 73
     0
 40
0.0
  0
LTYPE
  5
15
330
5
100
AcDbSymbolTableRecord
100
AcDbLinetypeTableRecord
  2
BYLAYER
 70
     0
  3

 72
    65
 73
     0
 40
0.0
  0
LTYPE
  5
16
330
5
100
AcDbSymbolTableRecord
100
AcDbLinetypeTableRecord
  2
CONTINUOUS
 70
     0
  3
Solid line
 72
    65
 73
     0
 40
0.0
  0
ENDTAB
  0
TABLE
0
TABLE
2
LAYER
5
2
330
0
100
AcDbSymbolTable
70
1
0
LAYER
5
10
330
2
100
AcDbSymbolTableRecord
100
AcDbLayerTableRecord
2
Layer_1
70
0
62
7
6
CONTINUOUS
0
ENDTAB
0
ENDSEC
  0
ENDTAB
  0
TABLE
  2
STYLE
  5
3
330
0
100
AcDbSymbolTable
 70
     1
  0
STYLE
  5
11
330
3
100
AcDbSymbolTableRecord
100
AcDbTextStyleTableRecord
  2
STANDARD
 70
     0
 40
0.0
 41
1.0
 50
0.0
 71
     0
 42
2.5
  3
txt
  4

  0
ENDTAB
  0
TABLE
  2
VIEW
  5
6
330
0
100
AcDbSymbolTable
 70
     0
  0
ENDTAB
  0
TABLE
  2
UCS
  5
7
330
0
100
AcDbSymbolTable
 70
     0
  0
ENDTAB
  0
TABLE
  2
APPID
  5
9
330
0
100
AcDbSymbolTable
 70
     2
  0
APPID
  5
12
330
9
100
AcDbSymbolTableRecord
100
AcDbRegAppTableRecord
  2
ACAD
 70
     0
  0
ENDTAB
  0
TABLE
  2
DIMSTYLE
  5
A
330
0
100
AcDbSymbolTable
 70
     1
  0
DIMSTYLE
105
27
330
A
100
AcDbSymbolTableRecord
100
AcDbDimStyleTableRecord
  2
ISO-25
 70
     0
  3

  4

  5

  6

  7

 40
1.0
 41
2.5
 42
0.625
 43
3.75
 44
1.25
 45
0.0
 46
0.0
 47
0.0
 48
0.0
140
2.5
141
2.5
142
0.0
143
0.03937007874016
144
1.0
145
0.0
146
1.0
147
0.625
 71
     0
 72
     0
 73
     0
 74
     0
 75
     0
 76
     0
 77
     1
 78
     8
170
     0
171
     3
172
     1
173
     0
174
     0
175
     0
176
     0
177
     0
178
     0
270
     2
271
     2
272
     2
273
     2
274
     3
340
11
275
     0
280
     0
281
     0
282
     0
283
     0
284
     8
285
     0
286
     0
287
     3
288
     0
  0
ENDTAB
  0
TABLE
  2
BLOCK_RECORD
  5
1
330
0
100
AcDbSymbolTable
 70
     1
  0
BLOCK_RECORD
  5
1F
330
1
100
AcDbSymbolTableRecord
100
AcDbBlockTableRecord
  2
*MODEL_SPACE
  0
BLOCK_RECORD
  5
1B
330
1
100
AcDbSymbolTableRecord
100
AcDbBlockTableRecord
  2
*PAPER_SPACE
  0
ENDTAB
  0
ENDSEC
  0
SECTION
  2
BLOCKS
  0
BLOCK
  5
20
330
1F
100
AcDbEntity
  8
0
100
AcDbBlockBegin
  2
*MODEL_SPACE
 70
     0
 10
0.0
 20
0.0
 30
0.0
  3
*MODEL_SPACE
  1

  0
ENDBLK
  5
21
330
1F
100
AcDbEntity
  8
0
100
AcDbBlockEnd
  0
BLOCK
  5
1C
330
1B
100
AcDbEntity
 67
     1
  8
0
100
AcDbBlockBegin
  2
*PAPER_SPACE
  1

  0
ENDBLK
  5
1D
330
1B
100
AcDbEntity
 67
     1
  8
0
100
AcDbBlockEnd
  0
ENDSEC
  0
SECTION
  2
ENTITIES
0
DIMENSION
5
83
100
AcDbEntity
62
256
370
-1
6
ByLayer
1
total_width
3
Standard
70
0
71
5
72
1
41
1.0
100
AcDbAlignedDimension
13
0.000000
23
0.000000
33
0.0
14
113.972879
24
0.000000
34
0.0
50
0.000000
100
AcDbRotatedDimension
0
DIMENSION
5
83
100
AcDbEntity
62
256
370
-1
6
ByLayer
1
total_height
3
Standard
70
0
71
5
72
1
41
1.0
100
AcDbAlignedDimension
13
0.000000
23
0.000000
33
0.0
14
0.000000
24
27.920960
34
0.0
50
90.000000
100
AcDbRotatedDimension
0
DIMENSION
8
Layer_1
5
83
100
AcDbEntity
62
256
370
-1
6
ByLayer
1
Layer_1_width
3
Standard
70
0
71
5
72
1
41
1.0
100
AcDbAlignedDimension
13
0.000000
23
0.000000
33
0.0
14
113.972879
24
0.000000
34
0.0
50
0.000000
100
AcDbRotatedDimension
0
DIMENSION
8
Layer_1
5
83
100
AcDbEntity
62
256
370
-1
6
ByLayer
1
Layer_1_height
3
Standard
70
0
71
5
72
1
41
1.0
100
AcDbAlignedDimension
13
0.000000
23
0.000000
33
0.0
14
0.000000
24
27.920960
34
0.0
50
90.000000
100
AcDbRotatedDimension
0
LWPOLYLINE
100
AcDbPolyline
8
Layer_1
90
79
70
0
10
0.184873
20
2.216785
30
0.0
10
0.432263
20
4.227421
30
0.0
10
0.836325
20
6.216706
30
0.0
10
1.395244
20
8.180219
30
0.0
10
2.107203
20
10.113544
30
0.0
10
2.970386
20
12.012262
30
0.0
10
3.982978
20
13.871954
30
0.0
10
6.449120
20
17.456587
30
0.0
10
7.875015
20
19.110575
30
0.0
10
9.427115
20
20.633169
30
0.0
10
11.093942
20
22.021135
30
0.0
10
12.864020
20
23.271239
30
0.0
10
14.725873
20
24.380247
30
0.0
10
16.668024
20
25.344925
30
0.0
10
18.678997
20
26.162039
30
0.0
10
20.747315
20
26.828355
30
0.0
10
22.861502
20
27.340639
30
0.0
10
25.010081
20
27.695657
30
0.0
10
27.181576
20
27.890175
30
0.0
10
29.364510
20
27.920960
30
0.0
10
31.547407
20
27.784776
30
0.0
10
33.718791
20
27.478390
30
0.0
10
35.867184
20
26.998569
30
0.0
10
37.981111
20
26.342078
30
0.0
10
44.440614
20
24.315161
30
0.0
10
47.124955
20
23.645989
30
0.0
10
48.839236
20
23.372214
30
0.0
10
50.191726
20
23.467539
30
0.0
10
51.178305
20
23.955302
30
0.0
10
52.031508
20
24.586102
30
0.0
10
53.079108
20
23.956264
30
0.0
10
54.213966
20
23.264659
30
0.0
10
53.839796
20
21.615637
30
0.0
10
53.569888
20
20.360066
30
0.0
10
53.574211
20
19.278283
30
0.0
10
53.869279
20
18.254135
30
0.0
10
54.471604
20
17.171470
30
0.0
10
55.351353
20
16.124138
30
0.0
10
56.518986
20
15.189058
30
0.0
10
57.952805
20
14.373756
30
0.0
10
59.631110
20
13.685755
30
0.0
10
61.532205
20
13.132578
30
0.0
10
63.634390
20
12.721750
30
0.0
10
65.915967
20
12.460796
30
0.0
10
68.355238
20
12.357238
30
0.0
10
71.754464
20
12.432443
30
0.0
10
72.696215
20
12.607716
30
0.0
10
73.525682
20
12.917337
30
0.0
10
74.642792
20
13.593382
30
0.0
10
75.344422
20
14.456711
30
0.0
10
75.643697
20
15.532751
30
0.0
10
75.553742
20
16.846934
30
0.0
10
75.293375
20
18.186623
30
0.0
10
76.481884
20
18.816221
30
0.0
10
77.670392
20
19.445822
30
0.0
10
79.000731
20
18.702282
30
0.0
10
80.345249
20
18.147185
30
0.0
10
81.843931
20
17.930434
30
0.0
10
83.586934
20
18.049308
30
0.0
10
85.664413
20
18.501083
30
0.0
10
89.523180
20
19.347636
30
0.0
10
93.229325
20
19.778134
30
0.0
10
96.592753
20
19.780928
30
0.0
10
99.423375
20
19.344366
30
0.0
10
100.945097
20
18.859967
30
0.0
10
102.455987
20
18.220077
30
0.0
10
105.346005
20
16.542638
30
0.0
10
107.894894
20
14.449679
30
0.0
10
108.979374
20
13.290388
30
0.0
10
109.904121
20
12.078829
30
0.0
10
111.191210
20
9.810160
30
0.0
10
112.389601
20
7.062877
30
0.0
10
113.314431
20
4.315391
30
0.0
10
113.780838
20
2.046111
30
0.0
10
113.972879
20
0.000000
30
0.0
10
56.986438
20
0.000000
30
0.0
10
0.000000
20
0.000000
30
0.0
10
0.184873
20
2.216785
30
0.0
10
0.184873
20
2.216785
30
0.0
  0
ENDSEC
  0
SECTION
  2
OBJECTS
  0
DICTIONARY
  5
C
330
0
100
AcDbDictionary
  3
ACAD_GROUP
350
D
  3
ACAD_MLINESTYLE
350
17
  0
DICTIONARY
  5
D
330
C
100
AcDbDictionary
  0
DICTIONARY
  5
1A
330
C
100
AcDbDictionary
  0
DICTIONARY
  5
17
330
C
100
AcDbDictionary
  3
STANDARD
350
18
  0
DICTIONARY
  5
19
330
C
100
AcDbDictionary
  0
ENDSEC
  0
EOF
